<svg xmlns="http://www.w3.org/2000/svg" width="24" height="24" viewBox="0 0 92 92" fill="none">
<path fill-rule="evenodd" clip-rule="evenodd" d="M41.9366 30.4366C43.0147 29.3598 44.4762 28.755 45.9999 28.755C47.5237 28.755 48.9851 29.3598 50.0632 30.4366L71.7522 52.1179C72.2861 52.6521 72.7095 53.2861 72.9983 53.9838C73.2872 54.6816 73.4357 55.4294 73.4356 56.1846C73.4354 56.9397 73.2865 57.6875 72.9973 58.3851C72.7082 59.0827 72.2844 59.7165 71.7503 60.2504C71.2162 60.7842 70.5822 61.2076 69.8844 61.4965C69.1867 61.7853 68.4389 61.9339 67.6837 61.9337C66.9286 61.9335 66.1808 61.7846 65.4832 61.4954C64.7856 61.2063 64.1518 60.7826 63.6179 60.2484L45.9999 42.6304L28.3819 60.2484C27.8517 60.7979 27.2175 61.2362 26.5161 61.5379C25.8147 61.8396 25.0603 61.9985 24.2968 62.0055C23.5333 62.0125 22.7761 61.8674 22.0693 61.5786C21.3625 61.2898 20.7203 60.8632 20.1802 60.3236C19.6401 59.7839 19.2128 59.1421 18.9234 58.4356C18.6339 57.7291 18.4881 56.972 18.4943 56.2085C18.5006 55.4451 18.6589 54.6905 18.9599 53.9888C19.2609 53.2871 19.6986 52.6525 20.2476 52.1218L41.9327 30.4328L41.9366 30.4366Z" fill="white"/>
</svg>