<svg width="20" height="20" viewBox="0 0 20 20" fill="none" xmlns="http://www.w3.org/2000/svg">
<path d="M15.8337 5H13.3337V4.16667C13.3337 3.72464 13.1581 3.30072 12.8455 2.98816C12.5329 2.67559 12.109 2.5 11.667 2.5H8.33366C7.89163 2.5 7.46771 2.67559 7.15515 2.98816C6.84259 3.30072 6.66699 3.72464 6.66699 4.16667V5H4.16699C3.50395 5 2.86807 5.26339 2.39923 5.73223C1.93038 6.20107 1.66699 6.83696 1.66699 7.5V15C1.66699 15.663 1.93038 16.2989 2.39923 16.7678C2.86807 17.2366 3.50395 17.5 4.16699 17.5H15.8337C16.4967 17.5 17.1326 17.2366 17.6014 16.7678C18.0703 16.2989 18.3337 15.663 18.3337 15V7.5C18.3337 6.83696 18.0703 6.20107 17.6014 5.73223C17.1326 5.26339 16.4967 5 15.8337 5ZM8.33366 4.16667H11.667V5H8.33366V4.16667ZM16.667 15C16.667 15.221 16.5792 15.433 16.4229 15.5893C16.2666 15.7455 16.0547 15.8333 15.8337 15.8333H4.16699C3.94598 15.8333 3.73402 15.7455 3.57774 15.5893C3.42146 15.433 3.33366 15.221 3.33366 15V10.325L7.23366 11.6667C7.32214 11.6787 7.41184 11.6787 7.50033 11.6667H12.5003C12.5907 11.665 12.6804 11.651 12.767 11.625L16.667 10.325V15ZM16.667 8.56667L12.367 10H7.63366L3.33366 8.56667V7.5C3.33366 7.27899 3.42146 7.06702 3.57774 6.91074C3.73402 6.75446 3.94598 6.66667 4.16699 6.66667H15.8337C16.0547 6.66667 16.2666 6.75446 16.4229 6.91074C16.5792 7.06702 16.667 7.27899 16.667 7.5V8.56667Z" fill="#FCFCFC"/>
</svg>
