<svg xmlns="http://www.w3.org/2000/svg" width="24" height="24" viewBox="0 0 62 62" fill="none">
<path d="M31.0002 10.3334C33.7407 10.3334 36.3691 11.4221 38.3069 13.3599C40.2448 15.2978 41.3335 17.9261 41.3335 20.6667C41.3335 23.4073 40.2448 26.0356 38.3069 27.9735C36.3691 29.9114 33.7407 31 31.0002 31C28.2596 31 25.6313 29.9114 23.6934 27.9735C21.7555 26.0356 20.6668 23.4073 20.6668 20.6667C20.6668 17.9261 21.7555 15.2978 23.6934 13.3599C25.6313 11.4221 28.2596 10.3334 31.0002 10.3334ZM31.0002 36.1667C42.4185 36.1667 51.6668 40.7909 51.6668 46.5V51.6667H10.3335V46.5C10.3335 40.7909 19.5818 36.1667 31.0002 36.1667Z" fill="white"/>
</svg>